<?xml version="1.0" encoding="utf-8"?>
<!-- Generator: Adobe Illustrator 26.0.1, SVG Export Plug-In . SVG Version: 6.00 Build 0)  -->
<svg version="1.1" xmlns="http://www.w3.org/2000/svg" xmlns:xlink="http://www.w3.org/1999/xlink" x="0px" y="0px"
	 viewBox="0 0 1440 864" style="enable-background:new 0 0 1440 864;" xml:space="preserve">
<style type="text/css">
	.st0{fill:url(#SVGID_1_);}
	.st1{display:none;}
	.st2{display:inline;fill:#231F20;}
</style>
<g id="Layer_1">
	<radialGradient id="SVGID_1_" cx="720" cy="432" r="593.7272" gradientUnits="userSpaceOnUse">
		<stop  offset="0" style="stop-color:#00B0EB"/>
		<stop  offset="0.2392" style="stop-color:#ED298F"/>
		<stop  offset="0.2437" style="stop-color:#ED2E92"/>
		<stop  offset="0.2848" style="stop-color:#F15AA8"/>
		<stop  offset="0.3302" style="stop-color:#F481BD"/>
		<stop  offset="0.3791" style="stop-color:#F7A3CF"/>
		<stop  offset="0.4325" style="stop-color:#FAC0DE"/>
		<stop  offset="0.4918" style="stop-color:#FCD7EA"/>
		<stop  offset="0.5596" style="stop-color:#FDE9F4"/>
		<stop  offset="0.641" style="stop-color:#FEF6FA"/>
		<stop  offset="0.7498" style="stop-color:#FFFDFE"/>
		<stop  offset="1" style="stop-color:#FFFFFF"/>
	</radialGradient>
	<rect class="st0" width="1440" height="864"/>
</g>
<g id="Layer_2" class="st1">
	<polygon class="st2" points="720,863.7 670.8,-14.3 720,-14.3 	"/>
	<polyline class="st2" points="720,863.7 480,-6.8 560,-6.8 720,863.7 	"/>
	<polyline class="st2" points="720,863.7 305.6,-9.5 385.6,-9.5 720,863.7 	"/>
	<polyline class="st2" points="720,863.7 162.8,-4.9 242.8,-4.9 720,863.7 	"/>
	<polyline class="st2" points="720,863.7 -10.6,-4.9 69.4,-4.9 720,863.7 	"/>
	<polyline class="st2" points="720,863.7 -238,4.8 -119,-0.2 720,863.7 	"/>
	<polyline class="st2" points="720,863.7 -513.2,22 -353,15.2 720,863.7 	"/>
	<polyline class="st2" points="720,863.7 -858,26.5 -657,26.5 720,863.7 	"/>
	<polyline class="st2" points="720,863.7 -1295,51.6 -1016,51.6 720,863.7 	"/>
	<polyline class="st2" points="720,863.7 -1766.5,91.2 -1470.5,73 720,863.7 	"/>
	<polyline class="st2" points="720,863.7 -2389,125.9 -1891.8,125.9 720,863.7 	"/>
	<polyline class="st2" points="720,863.7 -3160,284.6 -2458.7,224 720,863.7 	"/>
	<polyline class="st2" points="720,863.7 -3667.7,569.8 -2909.2,421.3 720,863.7 	"/>
	<polyline class="st2" points="720,863.7 -3704,845.3 -2945.6,696.9 720,863.7 	"/>
	<polygon class="st2" points="720,863.7 769.2,-14.3 720,-14.3 	"/>
	<polyline class="st2" points="720,863.7 960,-6.8 880,-6.8 720,863.7 	"/>
	<polyline class="st2" points="720,863.7 1134.4,-9.5 1054.4,-9.5 720,863.7 	"/>
	<polyline class="st2" points="720,863.7 1277.2,-4.9 1197.2,-4.9 720,863.7 	"/>
	<polyline class="st2" points="720,863.7 1450.6,-4.9 1370.6,-4.9 720,863.7 	"/>
	<polyline class="st2" points="720,863.7 1678,4.8 1559,-0.2 720,863.7 	"/>
	<polyline class="st2" points="720,863.7 1953.2,22 1793,15.2 720,863.7 	"/>
	<polyline class="st2" points="720,863.7 2298,26.5 2097,26.5 720,863.7 	"/>
	<polyline class="st2" points="720,863.7 2735,51.6 2456,51.6 720,863.7 	"/>
	<polyline class="st2" points="720,863.7 3206.5,91.2 2910.5,73 720,863.7 	"/>
	<polyline class="st2" points="720,863.7 3829,125.9 3331.8,125.9 720,863.7 	"/>
	<polyline class="st2" points="720,863.7 4600,284.6 3898.7,224 720,863.7 	"/>
	<polyline class="st2" points="720,863.7 5107.7,569.8 4349.2,421.3 720,863.7 	"/>
	<polyline class="st2" points="720,863.7 5144,845.3 4385.6,696.9 720,863.7 	"/>
</g>
</svg>
