<svg xmlns="http://www.w3.org/2000/svg" xmlns:xlink="http://www.w3.org/1999/xlink" viewBox="0 0 8848.1 878.29"><defs><style>.cls-1{fill:url(#linear-gradient);}.cls-2{fill:#231f20;}</style><linearGradient id="linear-gradient" x1="-734.12" y1="864" x2="-734.12" gradientTransform="matrix(-0.5, -0.87, -0.87, 0.5, 4452.3, -417.71)" gradientUnits="userSpaceOnUse"><stop offset="0" stop-color="#fff"/><stop offset="1" stop-color="#fff"/></linearGradient></defs><g id="Layer_1" data-name="Layer 1"><rect class="cls-1" x="3704.05" y="14.29" width="1440" height="864"/></g><g id="Layer_2" data-name="Layer 2"><polygon class="cls-2" points="4424.05 878 4344.05 0 4424.05 0 4424.05 878"/><polyline class="cls-2" points="4424.05 878 4184.05 7.5 4264.05 7.5 4424.05 878"/><polyline class="cls-2" points="4424.05 878 4009.65 4.75 4089.65 4.75 4424.05 878"/><polyline class="cls-2" points="4424.05 878 3866.85 9.38 3946.85 9.38 4424.05 878"/><polyline class="cls-2" points="4424.05 878 3693.45 9.38 3773.45 9.38 4424.05 878"/><polyline class="cls-2" points="4424.05 878 3466.05 19.06 3585.05 14.06 4424.05 878"/><polyline class="cls-2" points="4424.05 878 3190.82 36.26 3351.05 29.53 4424.05 878"/><polyline class="cls-2" points="4424.05 878 2846.05 40.77 3047.05 40.77 4424.05 878"/><polyline class="cls-2" points="4424.05 878 2409.05 65.88 2688.05 65.88 4424.05 878"/><polyline class="cls-2" points="4424.05 878 1937.55 105.44 2233.54 87.24 4424.05 878"/><polyline class="cls-2" points="4424.05 878 1315.06 140.22 1812.3 140.22 4424.05 878"/><polyline class="cls-2" points="4424.05 878 544.09 298.92 1245.31 238.33 4424.05 878"/><polyline class="cls-2" points="4424.05 878 36.37 584.1 794.83 435.63 4424.05 878"/><polyline class="cls-2" points="4424.05 878 0 859.62 758.46 711.15 4424.05 878"/><polygon class="cls-2" points="4424.05 878 4504.05 0 4424.05 0 4424.05 878"/><polyline class="cls-2" points="4424.05 878 4664.05 7.5 4584.05 7.5 4424.05 878"/><polyline class="cls-2" points="4424.05 878 4838.45 4.75 4758.45 4.75 4424.05 878"/><polyline class="cls-2" points="4424.05 878 4981.25 9.38 4901.25 9.38 4424.05 878"/><polyline class="cls-2" points="4424.05 878 5154.65 9.38 5074.65 9.38 4424.05 878"/><polyline class="cls-2" points="4424.05 878 5382.05 19.06 5263.05 14.06 4424.05 878"/><polyline class="cls-2" points="4424.05 878 5657.28 36.26 5497.05 29.53 4424.05 878"/><polyline class="cls-2" points="4424.05 878 6002.05 40.77 5801.05 40.77 4424.05 878"/><polyline class="cls-2" points="4424.05 878 6439.05 65.88 6160.05 65.88 4424.05 878"/><polyline class="cls-2" points="4424.05 878 6910.55 105.44 6614.56 87.24 4424.05 878"/><polyline class="cls-2" points="4424.05 878 7533.04 140.22 7035.8 140.22 4424.05 878"/><polyline class="cls-2" points="4424.05 878 8304.01 298.92 7602.79 238.33 4424.05 878"/><polyline class="cls-2" points="4424.05 878 8811.73 584.1 8053.27 435.63 4424.05 878"/><polyline class="cls-2" points="4424.05 878 8848.1 859.62 8089.64 711.15 4424.05 878"/></g></svg>